<mxfile host="app.diagrams.net" modified="2021-05-04T12:22:37.307Z" agent="5.0 (Windows)" etag="4ql8dS-XVUBxBb3OU5iO" version="14.6.9" type="github">
  <diagram id="tR20AryKdcLz3GlmEhEK" name="Page-1">
    <mxGraphModel dx="975" dy="587" grid="1" gridSize="10" guides="1" tooltips="1" connect="1" arrows="1" fold="1" page="1" pageScale="1" pageWidth="850" pageHeight="1100" math="0" shadow="0">
      <root>
        <mxCell id="0" />
        <mxCell id="1" parent="0" />
        <mxCell id="bP90Zo4gkzNuYZzZ2SoU-1" value="passenger" style="swimlane;childLayout=stackLayout;horizontal=1;startSize=30;horizontalStack=0;rounded=1;fontSize=14;fontStyle=0;strokeWidth=2;resizeParent=0;resizeLast=1;shadow=0;dashed=0;align=center;" vertex="1" parent="1">
          <mxGeometry x="100" y="230" width="160" height="120" as="geometry" />
        </mxCell>
        <mxCell id="bP90Zo4gkzNuYZzZ2SoU-2" value="firstName(string)&#xa;lastName(string)&#xa;" style="align=left;strokeColor=none;fillColor=none;spacingLeft=4;fontSize=12;verticalAlign=top;resizable=0;rotatable=0;part=1;" vertex="1" parent="bP90Zo4gkzNuYZzZ2SoU-1">
          <mxGeometry y="30" width="160" height="90" as="geometry" />
        </mxCell>
        <mxCell id="bP90Zo4gkzNuYZzZ2SoU-3" value="flight" style="swimlane;childLayout=stackLayout;horizontal=1;startSize=30;horizontalStack=0;rounded=1;fontSize=14;fontStyle=0;strokeWidth=2;resizeParent=0;resizeLast=1;shadow=0;dashed=0;align=center;" vertex="1" parent="1">
          <mxGeometry x="530" y="215" width="210" height="135" as="geometry" />
        </mxCell>
        <mxCell id="bP90Zo4gkzNuYZzZ2SoU-4" value="number(string)&#xa;departure(DATETIME)&#xa;arrival(DATETIME)&#xa;durationInMinutes(integer)&#xa;distanceInMiles(integer)&#xa;" style="align=left;strokeColor=none;fillColor=none;spacingLeft=4;fontSize=12;verticalAlign=top;resizable=0;rotatable=0;part=1;" vertex="1" parent="bP90Zo4gkzNuYZzZ2SoU-3">
          <mxGeometry y="30" width="210" height="105" as="geometry" />
        </mxCell>
        <mxCell id="bP90Zo4gkzNuYZzZ2SoU-10" value="airport" style="swimlane;childLayout=stackLayout;horizontal=1;startSize=30;horizontalStack=0;rounded=1;fontSize=14;fontStyle=0;strokeWidth=2;resizeParent=0;resizeLast=1;shadow=0;dashed=0;align=center;" vertex="1" parent="1">
          <mxGeometry x="265" y="370" width="160" height="120" as="geometry" />
        </mxCell>
        <mxCell id="bP90Zo4gkzNuYZzZ2SoU-11" value="IATACode(string)&#xa;name(string)&#xa;city(string)&#xa;state(string)&#xa;" style="align=left;strokeColor=none;fillColor=none;spacingLeft=4;fontSize=12;verticalAlign=top;resizable=0;rotatable=0;part=1;" vertex="1" parent="bP90Zo4gkzNuYZzZ2SoU-10">
          <mxGeometry y="30" width="160" height="90" as="geometry" />
        </mxCell>
        <mxCell id="bP90Zo4gkzNuYZzZ2SoU-14" value="" style="edgeStyle=entityRelationEdgeStyle;fontSize=12;html=1;endArrow=ERmany;startArrow=ERmany;exitX=1;exitY=0.25;exitDx=0;exitDy=0;entryX=0.005;entryY=0.579;entryDx=0;entryDy=0;entryPerimeter=0;" edge="1" parent="1" source="bP90Zo4gkzNuYZzZ2SoU-11" target="bP90Zo4gkzNuYZzZ2SoU-4">
          <mxGeometry width="100" height="100" relative="1" as="geometry">
            <mxPoint x="340" y="280" as="sourcePoint" />
            <mxPoint x="440" y="180" as="targetPoint" />
          </mxGeometry>
        </mxCell>
        <mxCell id="bP90Zo4gkzNuYZzZ2SoU-15" value="Departs/Arrives at" style="edgeLabel;html=1;align=center;verticalAlign=middle;resizable=0;points=[];" vertex="1" connectable="0" parent="bP90Zo4gkzNuYZzZ2SoU-14">
          <mxGeometry x="-0.0454" relative="1" as="geometry">
            <mxPoint y="-1" as="offset" />
          </mxGeometry>
        </mxCell>
        <mxCell id="bP90Zo4gkzNuYZzZ2SoU-16" value="ticket" style="swimlane;childLayout=stackLayout;horizontal=1;startSize=30;horizontalStack=0;rounded=1;fontSize=14;fontStyle=0;strokeWidth=2;resizeParent=0;resizeLast=1;shadow=0;dashed=0;align=center;" vertex="1" parent="1">
          <mxGeometry x="310" y="70" width="160" height="120" as="geometry" />
        </mxCell>
        <mxCell id="bP90Zo4gkzNuYZzZ2SoU-17" value="ticketNumer(string)&#xa;price(float)&#xa;confirmationNumer(string)&#xa;" style="align=left;strokeColor=none;fillColor=none;spacingLeft=4;fontSize=12;verticalAlign=top;resizable=0;rotatable=0;part=1;" vertex="1" parent="bP90Zo4gkzNuYZzZ2SoU-16">
          <mxGeometry y="30" width="160" height="90" as="geometry" />
        </mxCell>
        <mxCell id="bP90Zo4gkzNuYZzZ2SoU-18" value="" style="edgeStyle=entityRelationEdgeStyle;fontSize=12;html=1;endArrow=ERmany;startArrow=ERone;entryX=0;entryY=0.5;entryDx=0;entryDy=0;exitX=1;exitY=0;exitDx=0;exitDy=0;targetPerimeterSpacing=0;startFill=0;" edge="1" parent="1" source="bP90Zo4gkzNuYZzZ2SoU-2" target="bP90Zo4gkzNuYZzZ2SoU-16">
          <mxGeometry width="100" height="100" relative="1" as="geometry">
            <mxPoint x="160" y="140" as="sourcePoint" />
            <mxPoint x="260" y="40" as="targetPoint" />
          </mxGeometry>
        </mxCell>
        <mxCell id="bP90Zo4gkzNuYZzZ2SoU-20" value="purchases" style="edgeLabel;html=1;align=center;verticalAlign=middle;resizable=0;points=[];" vertex="1" connectable="0" parent="bP90Zo4gkzNuYZzZ2SoU-18">
          <mxGeometry x="0.2111" relative="1" as="geometry">
            <mxPoint as="offset" />
          </mxGeometry>
        </mxCell>
        <mxCell id="bP90Zo4gkzNuYZzZ2SoU-19" value="" style="edgeStyle=entityRelationEdgeStyle;fontSize=12;html=1;endArrow=ERmany;startArrow=ERone;entryX=0.994;entryY=0.333;entryDx=0;entryDy=0;entryPerimeter=0;exitX=-0.01;exitY=0.179;exitDx=0;exitDy=0;exitPerimeter=0;endFill=0;startFill=0;" edge="1" parent="1" source="bP90Zo4gkzNuYZzZ2SoU-4" target="bP90Zo4gkzNuYZzZ2SoU-17">
          <mxGeometry width="100" height="100" relative="1" as="geometry">
            <mxPoint x="469" y="210" as="sourcePoint" />
            <mxPoint x="540" y="70" as="targetPoint" />
          </mxGeometry>
        </mxCell>
        <mxCell id="bP90Zo4gkzNuYZzZ2SoU-21" value="issued for" style="edgeLabel;html=1;align=center;verticalAlign=middle;resizable=0;points=[];" vertex="1" connectable="0" parent="bP90Zo4gkzNuYZzZ2SoU-19">
          <mxGeometry x="0.0652" y="1" relative="1" as="geometry">
            <mxPoint as="offset" />
          </mxGeometry>
        </mxCell>
        <mxCell id="bP90Zo4gkzNuYZzZ2SoU-27" value="Airline" style="swimlane;childLayout=stackLayout;horizontal=1;startSize=30;horizontalStack=0;rounded=1;fontSize=14;fontStyle=0;strokeWidth=2;resizeParent=0;resizeLast=1;shadow=0;dashed=0;align=center;" vertex="1" parent="1">
          <mxGeometry x="570" y="370" width="160" height="120" as="geometry" />
        </mxCell>
        <mxCell id="bP90Zo4gkzNuYZzZ2SoU-28" value="name(string)" style="align=left;strokeColor=none;fillColor=none;spacingLeft=4;fontSize=12;verticalAlign=top;resizable=0;rotatable=0;part=1;" vertex="1" parent="bP90Zo4gkzNuYZzZ2SoU-27">
          <mxGeometry y="30" width="160" height="90" as="geometry" />
        </mxCell>
        <mxCell id="bP90Zo4gkzNuYZzZ2SoU-34" value="" style="edgeStyle=entityRelationEdgeStyle;fontSize=12;html=1;endArrow=ERoneToMany;targetPerimeterSpacing=0;exitX=1;exitY=0.5;exitDx=0;exitDy=0;" edge="1" parent="1" source="bP90Zo4gkzNuYZzZ2SoU-28" target="bP90Zo4gkzNuYZzZ2SoU-4">
          <mxGeometry width="100" height="100" relative="1" as="geometry">
            <mxPoint x="960" y="310" as="sourcePoint" />
            <mxPoint x="810" y="210" as="targetPoint" />
          </mxGeometry>
        </mxCell>
        <mxCell id="bP90Zo4gkzNuYZzZ2SoU-37" value="flightClass" style="swimlane;childLayout=stackLayout;horizontal=1;startSize=30;horizontalStack=0;rounded=1;fontSize=14;fontStyle=0;strokeWidth=2;resizeParent=0;resizeLast=1;shadow=0;dashed=0;align=center;" vertex="1" parent="1">
          <mxGeometry x="90" y="70" width="160" height="120" as="geometry" />
        </mxCell>
        <mxCell id="bP90Zo4gkzNuYZzZ2SoU-38" value="Name(string)" style="align=left;strokeColor=none;fillColor=none;spacingLeft=4;fontSize=12;verticalAlign=top;resizable=0;rotatable=0;part=1;" vertex="1" parent="bP90Zo4gkzNuYZzZ2SoU-37">
          <mxGeometry y="30" width="160" height="90" as="geometry" />
        </mxCell>
        <mxCell id="bP90Zo4gkzNuYZzZ2SoU-39" value="" style="edgeStyle=entityRelationEdgeStyle;fontSize=12;html=1;endArrow=ERoneToMany;targetPerimeterSpacing=0;exitX=1;exitY=0.25;exitDx=0;exitDy=0;entryX=0.013;entryY=0.178;entryDx=0;entryDy=0;entryPerimeter=0;" edge="1" parent="1" source="bP90Zo4gkzNuYZzZ2SoU-38" target="bP90Zo4gkzNuYZzZ2SoU-17">
          <mxGeometry width="100" height="100" relative="1" as="geometry">
            <mxPoint x="260" y="40" as="sourcePoint" />
            <mxPoint x="550" y="160" as="targetPoint" />
          </mxGeometry>
        </mxCell>
      </root>
    </mxGraphModel>
  </diagram>
</mxfile>
